<svg xmlns="http://www.w3.org/2000/svg" id="Layer_2" viewBox="0 0 312.75 91.15"><defs><style>.cls-1{fill:#fff;stroke-width:0px;}</style></defs><g id="Layer_1-2"><path class="cls-1" d="M9.05,18.1c5,0,9.05-4.05,9.05-9.05S14.05,0,9.05,0,0,4.05,0,9.05s4.05,9.05,9.05,9.05"/><path class="cls-1" d="M52.82,21.3c-15,0-27.2,12.2-27.2,27.2s12.2,27.2,27.2,27.2,27.2-12.2,27.2-27.2-12.2-27.2-27.2-27.2M52.82,89.41c-22.56,0-40.91-18.35-40.91-40.91S30.26,7.58,52.82,7.58s40.91,18.35,40.91,40.91-18.35,40.91-40.91,40.91"/><path class="cls-1" d="M86.26,91.15c-1.72,0-3.45-.65-4.78-1.94l-20.98-20.4c-2.71-2.64-2.77-6.98-.14-9.7,2.64-2.71,6.98-2.78,9.7-.14l20.98,20.4c2.71,2.64,2.77,6.98.13,9.7-1.34,1.38-3.13,2.08-4.92,2.08"/></g></svg>