<?xml version="1.0" encoding="UTF-8"?><svg id="Layer_2" xmlns="http://www.w3.org/2000/svg" xmlns:xlink="http://www.w3.org/1999/xlink" viewBox="0 0 2273.1 995.27"><defs><style>.cls-1{fill:url(#linear-gradient);}.cls-1,.cls-2{stroke-width:0px;}.cls-2{fill:none;}.cls-3{clip-path:url(#clippath);}</style><clipPath id="clippath"><rect class="cls-2" x="351.29" width="1921.81" height="995.27"/></clipPath><linearGradient id="linear-gradient" x1="0" y1="502.82" x2="1867.17" y2="502.82" gradientUnits="userSpaceOnUse"><stop offset="0" stop-color="#005591"/><stop offset=".19" stop-color="#015995"/><stop offset=".41" stop-color="#0666a1"/><stop offset=".63" stop-color="#0f7db6"/><stop offset=".86" stop-color="#1b9bd2"/><stop offset="1" stop-color="#24b2e7"/></linearGradient></defs><g id="Layer_1-2"><g class="cls-3"><path class="cls-1" d="M1423.76,946.95c11.12-1.12,22.28-1.9,33.34-3.43,24.75-3.43,49.77-5.8,74.1-11.22,40.54-9.02,78.57-24.96,114.59-45.94,53.62-31.22,98.89-71.43,135.72-121.37,21.4-29.03,38.54-60.29,52.58-93.46,19.25-45.47,30.55-92.99,32.72-142.01,1.37-31.05-1.28-62.47-4.58-93.47-4.7-44.15-18.48-86.06-37.78-125.97-26.19-54.16-61.33-101.45-107.01-141.17-43.29-37.64-91.45-66.28-145.31-85.53-52.54-18.78-106.7-27.67-162.43-23.79-29.73,2.07-59.98,3.63-88.8,10.48-80.72,19.18-151.05,58.41-210.37,116.9-18.61,18.35-36.69,37.43-56.84,53.96-49.69,40.78-103.85,74.98-161.11,104.23-70.93,36.23-144.65,65.76-221.44,86.63-51.9,14.1-104.62,25.34-157.3,36.3-47.3,9.85-95.36,13.08-143.7,9.96-21.91-1.42-43.84-2.76-65.69-4.89-38-3.71-76.14-6.76-113.84-12.55-20.79-3.19-41.56-7.99-58.38-24.24-16.81-16.25-37.18-26.15-62.63-21.45C24.91,423.15-7.79,462.44,1.62,511.4c5.93,30.81,25.65,51.77,56.59,60.42,29.31,8.19,54.43-.15,77.39-19.31,8.96-7.48,19.61-14.19,30.63-17.75,74.88-24.16,151.54-36.31,230.37-29.1,32.82,3,65.53,7.45,98.2,11.88,59.06,8.02,116.44,23.39,173.22,41.06,91.83,28.58,179.33,67.01,261.94,116.4,60.85,36.38,117.76,77.85,168.1,128.13,18.99,18.97,38.1,38.31,59.58,54.21,78.83,58.33,167.87,87.57,266.13,89.61Z"/><path class="cls-1" d="M1423.76,946.95c-98.26-2.04-187.3-31.28-266.13-89.61-21.48-15.89-40.59-35.24-59.58-54.21-50.34-50.28-107.25-91.75-168.1-128.13-82.61-49.39-170.11-87.82-261.94-116.4-56.78-17.67-114.16-33.04-173.22-41.06-32.67-4.43-65.38-8.88-98.2-11.88-78.84-7.2-155.49,4.94-230.37,29.1-11.01,3.55-21.66,10.27-30.63,17.75-22.96,19.16-48.08,27.5-77.39,19.31-30.94-8.65-50.66-29.61-56.59-60.42-9.42-48.96,23.29-88.25,67.99-96.5,25.44-4.69,45.81,5.21,62.63,21.45,16.82,16.25,37.59,21.05,58.38,24.24,37.7,5.79,75.84,8.84,113.84,12.55,21.85,2.13,43.78,3.47,65.69,4.89,48.33,3.13,96.39-.11,143.7-9.96,52.68-10.96,105.41-22.2,157.3-36.3,76.79-20.87,150.51-50.39,221.44-86.63,57.25-29.24,111.41-63.45,161.11-104.23,20.14-16.53,38.23-35.61,56.84-53.96,59.32-58.49,129.64-97.72,210.37-116.9,28.82-6.85,59.07-8.41,88.8-10.48,55.73-3.88,109.9,5.01,162.43,23.79,53.86,19.26,102.02,47.89,145.31,85.53,45.68,39.72,80.81,87.01,107.01,141.17,19.3,39.91,33.08,81.82,37.78,125.97,3.3,31,5.95,62.42,4.58,93.47-2.16,49.03-13.47,96.55-32.72,142.01-14.04,33.16-31.18,64.43-52.58,93.46-36.83,49.94-82.1,90.15-135.72,121.37-36.03,20.98-74.05,36.92-114.59,45.94-24.33,5.41-49.35,7.79-74.1,11.22-11.06,1.53-22.23,2.31-33.34,3.43Z"/></g></g></svg>