<?xml version="1.0" encoding="UTF-8"?><svg id="Layer_2" xmlns="http://www.w3.org/2000/svg" xmlns:xlink="http://www.w3.org/1999/xlink" viewBox="0 0 129.04 90.53"><defs><style>.cls-1{fill:#fff;}.cls-1,.cls-2,.cls-3{stroke:#04365d;stroke-miterlimit:10;stroke-width:.6px;}.cls-1,.cls-3{fill-rule:evenodd;}.cls-4{clip-path:url(#clippath-1);}.cls-2{fill:none;}.cls-5{clip-path:url(#clippath);}.cls-3{fill:#0038b8;}</style><clipPath id="clippath"><circle class="cls-2" cx="64.52" cy="45.26" r="44.97"/></clipPath><clipPath id="clippath-1"><rect class="cls-2" x="4.58" y=".31" width="119.88" height="89.92"/></clipPath></defs><g id="Layer_1-2"><g class="cls-5"><g class="cls-4"><path class="cls-1" d="M128.75,90.22H.3V.31h128.45v89.92Z"/><path class="cls-3" d="M128.75,20.54H.3v-11.8h128.45v11.8ZM128.75,82.09H.3v-11.8h128.45v11.8ZM43.92,33.8l19.34,33.65,19.76-33.49-39.09-.16Z"/><path class="cls-1" d="M59.62,56.12l3.67,6.23,3.76-6.2-7.43-.04Z"/><path class="cls-3" d="M43.85,56.61l19.35-33.65,19.74,33.51-39.09.14Z"/><path class="cls-1" d="M59.62,33.95l3.67-6.23,3.76,6.22-7.43.02ZM51.93,47.92l-3.81,6.32,7.2-.02-3.39-6.32v.02ZM48.19,36.24l7.24.05-3.48,6.38-3.76-6.43ZM74.74,48l3.67,6.23-7.32-.09,3.65-6.15ZM78.34,36.24l-7.24.05,3.48,6.38,3.76-6.43ZM58.27,36.24l-4.99,9.03,5.06,8.83,9.27.21,5.62-9.04-5.2-9.13-9.76.11Z"/></g><rect class="cls-2" x="4.58" y=".31" width="119.88" height="89.92"/></g><circle class="cls-2" cx="64.52" cy="45.26" r="44.97"/></g></svg>