<?xml version="1.0" encoding="UTF-8"?><svg id="Layer_2" xmlns="http://www.w3.org/2000/svg" xmlns:xlink="http://www.w3.org/1999/xlink" viewBox="0 0 520.89 248.81"><defs><style>.cls-1{fill:url(#linear-gradient);}.cls-1,.cls-2{stroke-width:0px;}.cls-2{fill:#67cad7;}</style><linearGradient id="linear-gradient" x1="-5326.77" y1="3328.55" x2="-4803.9" y2="3328.55" gradientTransform="translate(-4391.98 3992.98) rotate(173.45)" gradientUnits="userSpaceOnUse"><stop offset="0" stop-color="#005591"/><stop offset=".19" stop-color="#015995"/><stop offset=".41" stop-color="#0666a1"/><stop offset=".63" stop-color="#0f7db6"/><stop offset=".86" stop-color="#1b9bd2"/><stop offset="1" stop-color="#24b2e7"/></linearGradient></defs><g id="Layer_1-2"><path class="cls-1" d="M110.2.63c-3.06.67-6.14,1.24-9.17,2.02-6.78,1.74-13.66,3.2-20.26,5.49-10.99,3.81-21.06,9.45-30.41,16.44-13.92,10.4-25.23,23.03-33.88,38.1-5.03,8.76-8.8,18-11.64,27.68C.93,103.62-.69,117.2.27,130.91c.61,8.68,2.35,17.34,4.26,25.86,2.72,12.13,7.89,23.35,14.53,33.84,9.02,14.23,20.3,26.27,34.28,35.86,13.24,9.09,27.56,15.52,43.16,19.16,15.22,3.55,30.57,4.29,45.95,1.43,8.2-1.52,16.57-2.93,24.37-5.75,21.85-7.91,40.16-21.07,54.79-39.24,4.59-5.7,9.01-11.58,14.09-16.83,12.52-12.93,26.5-24.18,41.49-34.14,18.58-12.35,38.14-22.91,58.84-31.17,13.99-5.58,28.3-10.39,42.6-15.12,12.85-4.25,26.11-6.69,39.66-7.36,6.14-.31,12.28-.63,18.43-.74,10.69-.18,21.4-.55,32.07-.14,5.88.22,11.82.9,17.02,4.88,5.2,3.98,11.18,6.09,18.11,3.97,12.17-3.72,20.02-15.7,15.84-29.02-2.63-8.38-8.79-13.58-17.67-15-8.42-1.34-15.14,1.78-20.91,7.84-2.25,2.37-5,4.57-7.95,5.91-20.06,9.11-41,14.94-63.16,15.45-9.23.21-18.47.02-27.7-.17-16.69-.34-33.14-2.79-49.5-5.89-26.46-5.02-52.03-12.92-76.59-24.02-18.09-8.18-35.25-17.9-50.86-30.28-5.89-4.67-11.82-9.44-18.31-13.18C163.31,3.35,137.6-1.94,110.2.63Z"/><path class="cls-2" d="M110.2.63c27.4-2.57,53.11,2.72,76.9,16.43,6.48,3.74,12.42,8.51,18.31,13.18,15.61,12.38,32.77,22.1,50.86,30.28,24.56,11.1,50.13,19,76.59,24.02,16.36,3.1,32.81,5.55,49.5,5.89,9.23.19,18.47.38,27.7.17,22.16-.51,43.1-6.34,63.16-15.45,2.95-1.34,5.7-3.55,7.95-5.91,5.78-6.06,12.5-9.19,20.91-7.84,8.88,1.42,15.04,6.62,17.67,15,4.18,13.32-3.66,25.3-15.84,29.02-6.93,2.12-12.91.01-18.11-3.97-5.2-3.98-11.13-4.65-17.02-4.88-10.67-.41-21.38-.04-32.07.14-6.15.1-12.29.43-18.43.74-13.55.67-26.81,3.11-39.66,7.36-14.31,4.73-28.62,9.54-42.6,15.12-20.7,8.26-40.26,18.83-58.84,31.17-14.99,9.96-28.97,21.21-41.49,34.14-5.08,5.24-9.5,11.13-14.09,16.83-14.63,18.17-32.95,31.33-54.79,39.24-7.8,2.82-16.16,4.23-24.37,5.75-15.38,2.86-30.73,2.12-45.95-1.43-15.6-3.64-29.91-10.07-43.16-19.16-13.98-9.59-25.26-21.63-34.28-35.86-6.64-10.49-11.82-21.71-14.53-33.84-1.91-8.52-3.65-17.18-4.26-25.86-.96-13.71.66-27.29,4.57-40.55,2.85-9.67,6.62-18.92,11.64-27.68,8.65-15.07,19.96-27.7,33.88-38.1,9.35-6.99,19.42-12.64,30.41-16.44,6.6-2.28,13.48-3.74,20.26-5.49,3.03-.78,6.11-1.35,9.17-2.02Z"/></g></svg>