<?xml version="1.0" encoding="UTF-8"?><svg id="Layer_2" xmlns="http://www.w3.org/2000/svg" xmlns:xlink="http://www.w3.org/1999/xlink" viewBox="0 0 168.37 154.33"><defs><style>.cls-1{fill:url(#linear-gradient);}.cls-1,.cls-2,.cls-3{stroke-width:0px;}.cls-2{fill:none;}.cls-4{clip-path:url(#clippath-1);}.cls-3{fill:#fff;}.cls-5{opacity:.9;}.cls-6{clip-path:url(#clippath);}</style><clipPath id="clippath"><rect class="cls-2" x="10.34" y="7.45" width="143.34" height="126.97"/></clipPath><clipPath id="clippath-1"><path class="cls-2" d="M16.61,107.08c7.68,18.51,44.25,47.25,103.27,6.95,48.5-33.12,37.11-77.94,13.59-96.31C110.79,0,79.09,7.43,50.44,23.23,18.13,41.04,0,67.06,16.61,107.08"/></clipPath><linearGradient id="linear-gradient" x1="-2088.6" y1="4035.36" x2="-2087.6" y2="4035.36" gradientTransform="translate(299405.22 578533.97) scale(143.35 -143.35)" gradientUnits="userSpaceOnUse"><stop offset="0" stop-color="#1e0bd7"/><stop offset=".87" stop-color="#0075be"/><stop offset=".99" stop-color="#005b97"/><stop offset="1" stop-color="#005b97"/></linearGradient></defs><g id="Layer_1-2"><g class="cls-5"><g class="cls-6"><g class="cls-4"><rect class="cls-1" width="168.37" height="154.33"/></g></g></g><path class="cls-3" d="M100.65,62.63c-3.92,0-7.11,3.2-7.11,7.11s3.2,7.12,7.11,7.12,7.13-3.18,7.13-7.12-3.2-7.11-7.13-7.11M100.65,73.97c-2.33,0-4.22-1.9-4.22-4.22s1.9-4.22,4.22-4.22,4.24,1.9,4.24,4.22-1.89,4.22-4.24,4.22M84.53,62.63c-3.93,0-7.11,3.2-7.11,7.11s3.18,7.12,7.11,7.12,7.11-3.18,7.11-7.12-3.2-7.11-7.11-7.11M84.53,73.97c-2.33,0-4.22-1.9-4.22-4.22s1.9-4.22,4.22-4.22,4.22,1.9,4.22,4.22-1.9,4.22-4.22,4.22M68.39,62.63c-3.92,0-7.11,3.2-7.11,7.11s3.2,7.12,7.11,7.12,7.12-3.18,7.12-7.12-3.18-7.11-7.12-7.11M68.39,73.97c-2.33,0-4.22-1.9-4.22-4.22s1.9-4.22,4.22-4.22,4.22,1.9,4.22,4.22-1.89,4.22-4.22,4.22M100.65,62.63c-3.92,0-7.11,3.2-7.11,7.11s3.2,7.12,7.11,7.12,7.13-3.18,7.13-7.12-3.2-7.11-7.13-7.11M100.65,73.97c-2.33,0-4.22-1.9-4.22-4.22s1.9-4.22,4.22-4.22,4.24,1.9,4.24,4.22-1.89,4.22-4.24,4.22M84.53,62.63c-3.93,0-7.11,3.2-7.11,7.11s3.18,7.12,7.11,7.12,7.11-3.18,7.11-7.12-3.2-7.11-7.11-7.11M84.53,73.97c-2.33,0-4.22-1.9-4.22-4.22s1.9-4.22,4.22-4.22,4.22,1.9,4.22,4.22-1.9,4.22-4.22,4.22M68.39,62.63c-3.92,0-7.11,3.2-7.11,7.11s3.2,7.12,7.11,7.12,7.12-3.18,7.12-7.12-3.18-7.11-7.12-7.11M68.39,73.97c-2.33,0-4.22-1.9-4.22-4.22s1.9-4.22,4.22-4.22,4.22,1.9,4.22,4.22-1.89,4.22-4.22,4.22M83.27,33.59c-19.97,0-36.16,16.18-36.16,36.15,0,7.01,1.99,13.55,5.45,19.08l-3.02,14.14c-.12.51.06,1.04.46,1.39.41.35.95.45,1.45.26l12.13-4.53c5.66,3.69,12.44,5.81,19.68,5.81,19.97,0,36.15-16.18,36.15-36.15s-16.18-36.15-36.15-36.15M106.78,93.27c-6.02,6.02-14.32,9.73-23.52,9.73-6.94,0-13.36-2.11-18.69-5.73-.39-.26-.88-.33-1.32-.16l-10.35,3.86,2.6-12.12c.07-.38,0-.77-.2-1.08-3.36-5.21-5.31-11.37-5.31-18.03,0-9.18,3.72-17.5,9.73-23.52,6.03-6.03,14.33-9.75,23.53-9.75s17.5,3.72,23.52,9.75c6.03,6.02,9.75,14.33,9.75,23.52s-3.72,17.5-9.75,23.53"/></g></svg>