<?xml version="1.0" encoding="UTF-8"?><svg id="Layer_2" xmlns="http://www.w3.org/2000/svg" xmlns:xlink="http://www.w3.org/1999/xlink" viewBox="0 0 170.56 151.08"><defs><style>.cls-1{fill:#fff;}.cls-1,.cls-2{stroke-width:0px;}.cls-2{fill:url(#New_Gradient_Swatch);}</style><linearGradient id="New_Gradient_Swatch" x1="0" y1="75.54" x2="170.56" y2="75.54" gradientUnits="userSpaceOnUse"><stop offset="0" stop-color="#93d0e9"/><stop offset=".87" stop-color="#0075be"/><stop offset=".99" stop-color="#005b97"/></linearGradient></defs><g id="Layer_1-2"><path class="cls-2" d="M7.46,118.54c9.14,22.03,52.64,56.22,122.87,8.27,57.7-39.4,44.15-92.74,16.17-114.59C119.53-8.86,81.81-.03,47.71,18.77,9.27,39.96-12.3,70.93,7.46,118.54Z"/><path class="cls-1" d="M107.46,65.65c-4.66,0-8.47,3.8-8.47,8.47s3.8,8.47,8.47,8.47,8.48-3.79,8.48-8.47-3.8-8.47-8.48-8.47ZM107.46,79.15c-2.77,0-5.02-2.25-5.02-5.02s2.25-5.02,5.02-5.02,5.04,2.25,5.04,5.02-2.25,5.02-5.04,5.02ZM88.27,65.65c-4.68,0-8.47,3.8-8.47,8.47s3.79,8.47,8.47,8.47,8.47-3.79,8.47-8.47-3.8-8.47-8.47-8.47ZM88.27,79.15c-2.77,0-5.02-2.25-5.02-5.02s2.25-5.02,5.02-5.02,5.02,2.25,5.02,5.02-2.25,5.02-5.02,5.02ZM69.07,65.65c-4.66,0-8.47,3.8-8.47,8.47s3.8,8.47,8.47,8.47,8.47-3.79,8.47-8.47-3.79-8.47-8.47-8.47ZM69.07,79.15c-2.77,0-5.02-2.25-5.02-5.02s2.25-5.02,5.02-5.02,5.02,2.25,5.02,5.02-2.25,5.02-5.02,5.02ZM107.46,65.65c-4.66,0-8.47,3.8-8.47,8.47s3.8,8.47,8.47,8.47,8.48-3.79,8.48-8.47-3.8-8.47-8.48-8.47ZM107.46,79.15c-2.77,0-5.02-2.25-5.02-5.02s2.25-5.02,5.02-5.02,5.04,2.25,5.04,5.02-2.25,5.02-5.04,5.02ZM88.27,65.65c-4.68,0-8.47,3.8-8.47,8.47s3.79,8.47,8.47,8.47,8.47-3.79,8.47-8.47-3.8-8.47-8.47-8.47ZM88.27,79.15c-2.77,0-5.02-2.25-5.02-5.02s2.25-5.02,5.02-5.02,5.02,2.25,5.02,5.02-2.25,5.02-5.02,5.02ZM69.07,65.65c-4.66,0-8.47,3.8-8.47,8.47s3.8,8.47,8.47,8.47,8.47-3.79,8.47-8.47-3.79-8.47-8.47-8.47ZM69.07,79.15c-2.77,0-5.02-2.25-5.02-5.02s2.25-5.02,5.02-5.02,5.02,2.25,5.02,5.02-2.25,5.02-5.02,5.02ZM86.77,31.1c-23.76,0-43.02,19.25-43.02,43.02,0,8.35,2.37,16.12,6.49,22.7l-3.6,16.83c-.14.6.07,1.24.55,1.65.48.41,1.14.53,1.72.31l14.44-5.39c6.73,4.39,14.8,6.92,23.42,6.92,23.76,0,43.02-19.25,43.02-43.02s-19.25-43.02-43.02-43.02ZM114.75,102.12c-7.16,7.16-17.04,11.58-27.98,11.58-8.26,0-15.9-2.51-22.23-6.81-.46-.31-1.05-.4-1.57-.19l-12.32,4.59,3.1-14.42c.09-.45,0-.91-.24-1.29-3.99-6.19-6.31-13.52-6.31-21.46,0-10.93,4.42-20.82,11.58-27.98,7.18-7.18,17.05-11.6,28-11.6s20.82,4.42,27.98,11.6c7.18,7.16,11.6,17.05,11.6,27.98s-4.42,20.82-11.6,28Z"/></g></svg>