<?xml version="1.0" encoding="UTF-8"?>
<svg id="Layer_2" data-name="Layer 2" xmlns="http://www.w3.org/2000/svg" xmlns:xlink="http://www.w3.org/1999/xlink" viewBox="0 0 766.98 1624.47">
  <defs>
    <style>
      .cls-1 {
        fill: #fff;
      }

      .cls-2 {
        fill: none;
      }

      .cls-3 {
        clip-path: url(#clippath-1);
      }

      .cls-4 {
        fill: url(#linear-gradient);
      }

      .cls-5 {
        clip-path: url(#clippath);
      }
    </style>
    <clipPath id="clippath">
      <rect class="cls-2" width="766.98" height="1624.47"/>
    </clipPath>
    <linearGradient id="linear-gradient" x1="1714.21" y1="3665.95" x2="1715.21" y2="3665.95" gradientTransform="translate(6105627.86 2856503.53) rotate(-90) scale(1665.39 -1665.39)" gradientUnits="userSpaceOnUse">
      <stop offset="0" stop-color="#005591"/>
      <stop offset=".27" stop-color="#015793"/>
      <stop offset=".46" stop-color="#04619c"/>
      <stop offset=".63" stop-color="#0a71ab"/>
      <stop offset=".79" stop-color="#1387bf"/>
      <stop offset=".94" stop-color="#1ea4da"/>
      <stop offset="1" stop-color="#24b2e7"/>
    </linearGradient>
    <clipPath id="clippath-1">
      <rect class="cls-2" y="1199.57" width="766.5" height="424.91"/>
    </clipPath>
  </defs>
  <g id="Layer_1-2" data-name="Layer 1">
    <g class="cls-5">
      <rect class="cls-4" x="0" width="766.98" height="1624.47"/>
    </g>
    <g class="cls-3">
      <path class="cls-1" d="M828.78,1685.8c-1.39-11.09-2.43-22.23-4.23-33.25-4.02-24.66-6.99-49.61-12.99-73.81-9.99-40.31-26.83-77.94-48.67-113.46-32.5-52.85-73.78-97.15-124.58-132.78-29.53-20.7-61.2-37.08-94.69-50.33-45.91-18.16-93.69-28.32-142.76-29.31-31.07-.63-62.42,2.77-93.33,6.81-44.02,5.76-85.59,20.53-125.03,40.78-53.52,27.48-99.95,63.74-138.57,110.36-36.6,44.18-64.07,93.01-82.03,147.31-17.52,52.97-25.11,107.33-19.9,162.95,2.78,29.67,5.06,59.88,12.6,88.52,21.11,80.24,62.01,149.61,121.9,207.51,18.78,18.16,38.3,35.79,55.3,55.53,41.95,48.7,77.45,102.03,108.05,158.57,37.92,70.05,69.2,143.03,91.9,219.3,15.34,51.54,27.83,103.99,40.06,156.39,10.98,47.05,15.36,95.02,13.39,143.42-.89,21.94-1.71,43.89-3.32,65.78-2.8,38.08-4.94,76.28-9.82,114.11-2.69,20.86-6.99,41.74-22.83,58.94-15.84,17.2-25.25,37.8-19.95,63.12,9.32,44.49,49.38,76.25,98.1,65.67,30.66-6.66,51.15-26.88,59.05-58.02,7.49-29.5-1.45-54.41-21.15-76.91-7.69-8.78-14.66-19.27-18.47-30.2-25.95-74.28-39.92-150.62-34.61-229.61,2.21-32.88,5.88-65.69,9.53-98.45,6.6-59.23,20.6-116.97,36.9-174.15,26.38-92.49,62.7-180.88,110.1-264.65,34.92-61.71,75.01-119.59,124.07-171.12,18.51-19.44,37.39-39,52.77-60.86,56.42-80.2,83.53-169.92,83.21-268.19"/>
      <path class="cls-1" d="M828.78,1685.8c.31,98.28-26.79,187.99-83.21,268.19-15.37,21.86-34.26,41.42-52.77,60.86-49.06,51.53-89.15,109.41-124.07,171.12-47.4,83.77-83.72,172.16-110.1,264.65-16.31,57.18-30.3,114.92-36.9,174.15-3.65,32.77-7.32,65.57-9.53,98.45-5.31,78.99,8.66,155.33,34.61,229.61,3.82,10.93,10.78,21.41,18.47,30.2,19.7,22.5,28.64,47.41,21.15,76.91-7.9,31.14-28.39,51.35-59.05,58.02-48.72,10.59-88.78-21.17-98.1-65.67-5.3-25.32,4.11-45.92,19.95-63.12,15.84-17.2,20.14-38.09,22.83-58.94,4.89-37.83,7.02-76.03,9.82-114.11,1.61-21.89,2.42-43.85,3.32-65.78,1.97-48.39-2.42-96.36-13.39-143.42-12.22-52.4-24.71-104.85-40.06-156.39-22.7-76.27-53.98-149.26-91.9-219.3-30.61-56.54-66.1-109.86-108.05-158.57-17.01-19.74-36.52-37.37-55.3-55.53-59.89-57.9-100.8-127.27-121.9-207.51-7.53-28.64-9.82-58.85-12.6-88.52-5.21-55.62,2.38-109.98,19.9-162.95,17.96-54.31,45.44-103.14,82.03-147.31,38.62-46.62,85.05-82.87,138.57-110.36,39.44-20.25,81.01-35.03,125.03-40.78,30.91-4.04,62.26-7.44,93.33-6.81,49.06.99,96.84,11.15,142.76,29.31,33.49,13.24,65.16,29.63,94.69,50.33,50.81,35.62,92.09,79.92,124.58,132.78,21.84,35.51,38.68,73.14,48.67,113.46,5.99,24.19,8.97,49.14,12.99,73.81,1.8,11.02,2.84,22.17,4.23,33.25"/>
    </g>
  </g>
</svg>