<?xml version="1.0" encoding="UTF-8"?><svg id="Layer_2" xmlns="http://www.w3.org/2000/svg" viewBox="0 0 47.11 46.2"><defs><style>.cls-1{fill:#33b2bc;stroke:#04365d;stroke-miterlimit:10;stroke-width:1.62px;}.cls-1,.cls-2{fill-rule:evenodd;}.cls-3,.cls-2{fill:#fff;stroke-width:0px;}</style></defs><g id="Layer_1-2"><path id="Path" class="cls-1" d="M23.16,44.75c.07.18.02.38-.12.51s-.34.16-.51.09l-5.51-2.5c-1.95.91-4.13,1.25-6.26.99-.58-.07-1.15-.19-1.72-.35C3.56,41.91.1,36.52.93,30.89c.84-5.64,5.72-9.79,11.42-9.7,5.7.09,10.46,4.38,11.12,10.04.02.11.03.23.04.34.24,2.82-.57,5.63-2.28,7.88l1.93,5.32Z"/><path id="Shape" class="cls-3" d="M6.07,38.14c.23.11.49.13.73.05s.44-.25.55-.48l1.63-3.27h6.41l1.63,3.27c.15.3.45.5.79.52.34.02.66-.14.85-.42.19-.28.21-.64.06-.95l-5.69-11.37c-.18-.3-.5-.48-.85-.48s-.67.18-.85.48l-5.69,11.37c-.11.23-.13.49-.05.73s.25.44.48.55ZM12.18,28.03l2.26,4.51h-4.51l2.26-4.51Z"/><path id="Path-2" class="cls-1" d="M46.22,13.57c-.59,4.5-3.79,8.22-8.15,9.49-.56.16-1.14.28-1.72.35-2.14.26-4.31-.08-6.26-.99l-5.51,2.5c-.17.08-.38.04-.51-.09s-.19-.33-.12-.51l1.93-5.32c-1.71-2.25-2.53-5.06-2.28-7.88,0-.11.02-.23.04-.34C24.4,4.56,30.08.13,36.32.89c6.24.77,10.67,6.44,9.9,12.68h0Z"/><path id="Path-3" class="cls-2" d="M29.25,9.28h7.73c-.71,1.16-1.56,2.23-2.51,3.19-.22-.27-.43-.55-.62-.84-.27-.44-.85-.58-1.29-.31s-.59.84-.33,1.29c.26.4.54.79.85,1.16-1.01.87-2.11,1.62-3.29,2.24-.4.19-.61.63-.51,1.06s.48.74.92.74c.14,0,.28-.03.41-.09,1.36-.7,2.63-1.56,3.78-2.56,1.16,1.09,2.51,1.96,3.98,2.58.11.05.24.07.36.07.45,0,.84-.32.93-.76.09-.44-.15-.89-.56-1.06-1.22-.52-2.34-1.24-3.31-2.13,1.34-1.35,2.48-2.89,3.38-4.57h1.46c.52,0,.95-.42.95-.95s-.42-.95-.95-.95h-4.74v-1.9c0-.52-.42-.95-.95-.95s-.95.42-.95.95v1.9h-4.74c-.52,0-.95.42-.95.95s.42.95.95.95h0Z"/></g></svg>