<?xml version="1.0" encoding="UTF-8"?><svg id="Layer_2" xmlns="http://www.w3.org/2000/svg" viewBox="0 0 26.48 26.48"><defs><style>.cls-1{fill:#04365d;stroke-width:0px;}.cls-2{fill:#33b2bc;stroke:#04365d;stroke-miterlimit:10;stroke-width:.95px;}</style></defs><g id="Layer_1-2"><circle class="cls-2" cx="13.24" cy="13.26" r="12.23"/><g id="Layer_1-3"><path class="cls-1" d="M23.28,19.87c.6-.9,1.08-1.89,1.42-2.95.37-1.16.57-2.4.57-3.69s-.2-2.51-.57-3.66c-.33-1.04-.81-2.02-1.4-2.92-1.43.54-2.98.97-4.6,1.27-1.74.32-3.58.49-5.47.49s-3.72-.17-5.47-.49c-1.63-.3-3.17-.73-4.6-1.27-.59.9-1.06,1.88-1.4,2.92-.37,1.15-.57,2.38-.57,3.66s.2,2.53.57,3.69c.34,1.05.82,2.04,1.42,2.95,1.43-.54,2.97-.97,4.59-1.26,1.74-.32,3.57-.49,5.45-.49s3.71.17,5.45.49c1.62.3,3.16.73,4.59,1.26h0ZM25.84,17.29c-.42,1.31-1.04,2.52-1.82,3.62-.15.25-.46.37-.74.25l.22-.56-.22.56c-1.48-.59-3.1-1.06-4.81-1.37-1.66-.3-3.41-.47-5.23-.47s-3.58.16-5.23.47c-1.7.31-3.3.77-4.77,1.36-.26.13-.58.05-.75-.19h0c-.8-1.11-1.42-2.34-1.85-3.66C.22,16.01,0,14.65,0,13.24s.22-2.75.63-4.03c.42-1.3,1.03-2.52,1.8-3.61.15-.25.46-.36.74-.25h0c1.48.6,3.1,1.07,4.82,1.38,1.66.31,3.42.47,5.25.47s3.59-.16,5.25-.47c1.7-.31,3.31-.78,4.78-1.37.26-.13.58-.05.76.19l-.49.35.49-.35c.78,1.1,1.4,2.33,1.82,3.64.41,1.27.63,2.63.63,4.03s-.22,2.77-.64,4.05h0Z"/><path class="cls-1" d="M22.57,5.64c-1.04-1.28-2.34-2.34-3.82-3.1-1.65-.85-3.52-1.33-5.51-1.33s-3.86.48-5.51,1.33c-1.48.76-2.78,1.82-3.82,3.1,1.28.46,2.65.83,4.08,1.1,1.66.31,3.42.47,5.25.47s3.59-.16,5.25-.47c1.44-.26,2.8-.64,4.08-1.1ZM19.3,1.47c1.87.96,3.48,2.36,4.7,4.06.04.05.07.1.1.16.12.31-.03.66-.33.78l-.22-.56.22.56c-1.56.62-3.25,1.12-5.05,1.45-1.74.32-3.58.49-5.47.49s-3.72-.17-5.47-.49c-1.79-.33-3.47-.81-5.01-1.43-.06-.02-.12-.05-.17-.08-.27-.19-.33-.57-.14-.84h0c1.22-1.71,2.84-3.13,4.73-4.1C9,.53,11.06,0,13.24,0s4.24.53,6.06,1.47h0Z"/><path class="cls-1" d="M13.24,25.27c1.98,0,3.84-.48,5.49-1.32,1.47-.75,2.77-1.8,3.81-3.07-1.27-.46-2.63-.83-4.06-1.09-1.66-.3-3.41-.47-5.23-.47s-3.58.16-5.23.47c-1.43.26-2.79.63-4.06,1.09,1.04,1.27,2.34,2.32,3.81,3.07,1.64.84,3.51,1.32,5.49,1.32h0ZM19.27,25.02c-1.81.93-3.86,1.45-6.03,1.45s-4.22-.52-6.03-1.45c-1.86-.96-3.47-2.34-4.69-4.02-.04-.05-.08-.11-.1-.17-.12-.31.03-.66.34-.78h0c1.55-.62,3.24-1.11,5.04-1.44,1.74-.32,3.57-.49,5.45-.49s3.71.17,5.45.49c1.78.33,3.46.81,5,1.42.06.02.12.05.17.09.27.19.33.57.14.84l-.49-.35.49.35c-1.22,1.7-2.84,3.1-4.72,4.07h0Z"/><path class="cls-1" d="M18.94,13.24c0-3.39-.68-6.46-1.78-8.67-1.04-2.08-2.43-3.37-3.92-3.37s-2.88,1.29-3.92,3.37c-1.1,2.21-1.78,5.27-1.78,8.67s.68,6.46,1.78,8.67c1.04,2.08,2.43,3.37,3.92,3.37s2.88-1.29,3.92-3.37c1.1-2.21,1.78-5.27,1.78-8.67ZM18.23,4.04c1.18,2.37,1.91,5.62,1.91,9.2s-.73,6.84-1.91,9.2c-1.24,2.49-3.01,4.04-5,4.04s-3.75-1.54-5-4.04c-1.18-2.37-1.91-5.62-1.91-9.2s.73-6.84,1.91-9.2C9.48,1.54,11.25,0,13.24,0s3.75,1.54,5,4.04Z"/><path class="cls-1" d="M13.84.6c0-.33-.27-.6-.6-.6s-.6.27-.6.6v25.27c0,.33.27.6.6.6s.6-.27.6-.6V.6Z"/><path class="cls-1" d="M.6,12.63c-.33,0-.6.27-.6.6s.27.6.6.6h25.27c.33,0,.6-.27.6-.6s-.27-.6-.6-.6H.6Z"/></g></g></svg>