<?xml version="1.0" encoding="UTF-8"?><svg id="Layer_2" xmlns="http://www.w3.org/2000/svg" xmlns:xlink="http://www.w3.org/1999/xlink" viewBox="0 0 168.37 154.33"><defs><style>.cls-1{fill:url(#linear-gradient);}.cls-1,.cls-2{stroke-width:0px;}.cls-2,.cls-3{fill:none;}.cls-4{clip-path:url(#clippath-1);}.cls-5{opacity:.9;}.cls-6{clip-path:url(#clippath);}.cls-3{stroke:#fff;stroke-miterlimit:10;stroke-width:2.55px;}</style><clipPath id="clippath"><rect class="cls-2" x="10.34" y="7.45" width="143.34" height="126.97"/></clipPath><clipPath id="clippath-1"><path class="cls-2" d="M16.61,107.08c7.68,18.51,44.24,47.25,103.27,6.95,48.5-33.12,37.11-77.94,13.59-96.31C110.8,0,79.1,7.43,50.44,23.23,18.13,41.04,0,67.06,16.61,107.08"/></clipPath><linearGradient id="linear-gradient" x1="-2091.4" y1="4386.24" x2="-2090.4" y2="4386.24" gradientTransform="translate(299806.14 628831.74) scale(143.35 -143.35)" gradientUnits="userSpaceOnUse"><stop offset="0" stop-color="#1e0bd7"/><stop offset=".87" stop-color="#0075be"/><stop offset=".99" stop-color="#005b97"/><stop offset="1" stop-color="#005b97"/></linearGradient></defs><g id="Layer_1-2"><g class="cls-5"><g class="cls-6"><g class="cls-4"><rect class="cls-1" width="168.37" height="154.33"/></g></g></g><path class="cls-3" d="M98.94,84.8c-9.98,12.7-22.18,21.19-31.1,21.66-5.69-.08-11.98-2.86-15.32-6.77-1.38-1.62-1.86-3.33-1.48-5.22,1-5.01,7.82-9.9,9.65-10.84.06-.03.12-.07.18-.11.72-.49,1.41-.73,2.1-.73,1.77,0,3.65,1.55,5.64,3.19.44.36.87.72,1.31,1.07,1.66,1.31,3.48,1.97,5.43,1.97,4.5,0,9.48-3.54,15.24-10.82,8.12-10.29,9.41-17.74,3.82-22.16-.44-.34-.89-.68-1.33-1.02-3.69-2.79-5.2-4.29-4.19-6.96.02-.07.04-.13.06-.2.67-2.75,4.87-12.45,10.73-12.45.97,0,1.98.26,3,.79,4.58,2.34,8.76,7.85,10.12,13.28,1.64,8.79-3.8,22.65-13.87,35.32Z"/></g></svg>