<?xml version="1.0" encoding="UTF-8"?><svg id="Layer_2" xmlns="http://www.w3.org/2000/svg" xmlns:xlink="http://www.w3.org/1999/xlink" viewBox="0 0 170.56 151.08"><defs><style>.cls-1{fill:url(#New_Gradient_Swatch-2);stroke:#fff;stroke-miterlimit:10;stroke-width:3.04px;}.cls-2{fill:url(#New_Gradient_Swatch);stroke-width:0px;}</style><linearGradient id="New_Gradient_Swatch" x1="85.28" y1="0" x2="85.28" y2="151.08" gradientUnits="userSpaceOnUse"><stop offset="0" stop-color="#93d0e9"/><stop offset=".87" stop-color="#0075be"/><stop offset=".99" stop-color="#005b97"/></linearGradient><linearGradient id="New_Gradient_Swatch-2" x1="85.28" y1="33.27" x2="85.28" y2="117.8" xlink:href="#New_Gradient_Swatch"/></defs><g id="Layer_1-2"><path class="cls-2" d="M7.46,118.54c9.14,22.03,52.64,56.22,122.87,8.27,57.7-39.4,44.15-92.74,16.17-114.59C119.53-8.86,81.81-.03,47.71,18.77,9.27,39.96-12.3,70.93,7.46,118.54Z"/><path class="cls-1" d="M105.42,92.03c-11.87,15.11-26.39,25.21-37,25.77-6.77-.09-14.26-3.4-18.22-8.06-1.64-1.93-2.22-3.96-1.76-6.21,1.19-5.96,9.3-11.78,11.49-12.89.08-.04.15-.08.22-.13.86-.58,1.68-.87,2.5-.87,2.11,0,4.34,1.85,6.71,3.8.52.43,1.04.86,1.56,1.27,1.97,1.55,4.14,2.34,6.46,2.34,5.35,0,11.28-4.21,18.13-12.88,9.66-12.24,11.19-21.11,4.55-26.36-.52-.41-1.05-.81-1.59-1.22-4.39-3.32-6.19-5.1-4.98-8.29.03-.08.05-.16.07-.24.79-3.27,5.79-14.81,12.76-14.81,1.15,0,2.35.31,3.57.93,5.46,2.79,10.42,9.34,12.04,15.81,1.95,10.45-4.52,26.95-16.5,42.02Z"/></g></svg>