<?xml version="1.0" encoding="UTF-8"?><svg id="Layer_2" xmlns="http://www.w3.org/2000/svg" viewBox="0 0 139.46 58.73"><defs><style>.cls-1{fill:#04365d;}.cls-1,.cls-2{stroke-width:0px;}.cls-2{fill:#04365d;}.cls-3{fill:none;stroke:#04365d;stroke-linecap:round;stroke-width:5.3px;}</style></defs><g id="Layer_1-2"><path class="cls-1" d="M5.83,11.66c3.22,0,5.83-2.61,5.83-5.83S9.05,0,5.83,0,0,2.61,0,5.83s2.61,5.83,5.83,5.83"/><path class="cls-2" d="M34.03,13.72c-9.66,0-17.53,7.86-17.53,17.53s7.86,17.53,17.53,17.53,17.53-7.86,17.53-17.53-7.86-17.53-17.53-17.53M34.03,57.61c-14.54,0-26.36-11.83-26.36-26.36S19.5,4.89,34.03,4.89s26.36,11.83,26.36,26.36-11.83,26.36-26.36,26.36"/><path class="cls-2" d="M55.58,58.73c-1.11,0-2.22-.42-3.08-1.25l-13.52-13.14c-1.75-1.7-1.79-4.5-.09-6.25,1.7-1.75,4.5-1.79,6.25-.09l13.52,13.14c1.75,1.7,1.79,4.5.09,6.25-.87.89-2.02,1.34-3.17,1.34"/><line class="cls-3" x1="84.28" y1="48.77" x2="136.81" y2="48.77"/></g></svg>