<?xml version="1.0" encoding="UTF-8"?><svg id="Layer_2" xmlns="http://www.w3.org/2000/svg" viewBox="0 0 1154.9 303.37"><defs><style>.cls-1{fill:#67cad7;}.cls-1,.cls-2{stroke-width:0px;}.cls-2,.cls-3{fill:#fff;}.cls-3{font-family:Rubik-Bold, Rubik;font-size:102.6px;font-weight:700;}</style></defs><g id="Layer_1-2"><text class="cls-3" transform="translate(202.98 121.99)"><tspan x="0" y="0">IS HERE</tspan></text><text class="cls-3" transform="translate(19.95 272.61)"><tspan x="0" y="0">FOR YOU</tspan></text><path class="cls-1" d="M15.16,30.32c8.37,0,15.16-6.79,15.16-15.16S23.54,0,15.16,0,0,6.79,0,15.16s6.79,15.16,15.16,15.16"/><path class="cls-2" d="M88.51,35.69c-25.13,0-45.58,20.45-45.58,45.58s20.45,45.58,45.58,45.58,45.58-20.45,45.58-45.58-20.45-45.58-45.58-45.58M88.51,149.83c-37.8,0-68.56-30.75-68.56-68.56S50.71,12.71,88.51,12.71s68.56,30.76,68.56,68.56-30.76,68.56-68.56,68.56"/><path class="cls-2" d="M144.55,152.74c-2.89,0-5.78-1.08-8.01-3.25l-35.15-34.18c-4.55-4.42-4.65-11.7-.23-16.25,4.42-4.55,11.7-4.65,16.25-.23l35.15,34.18c4.55,4.42,4.65,11.7.23,16.25-2.25,2.32-5.24,3.48-8.24,3.48"/></g></svg>