<?xml version="1.0" encoding="UTF-8"?><svg id="Layer_2" xmlns="http://www.w3.org/2000/svg" viewBox="0 0 312.75 91.15"><defs><style>.cls-1{fill:#67cad7;}.cls-1,.cls-2{stroke-width:0px;}.cls-2{fill:#fff;}</style></defs><g id="Layer_1-2"><path class="cls-1" d="M9.05,18.1c5,0,9.05-4.05,9.05-9.05S14.05,0,9.05,0,0,4.05,0,9.05s4.05,9.05,9.05,9.05"/><path class="cls-2" d="M295.26,48.18c4.16,0,6.66,2.69,7.49,5.89h-15.31c1.02-3.65,3.97-5.89,7.81-5.89M295.32,38.96c-10.25,0-17.74,7.81-17.74,18.25s7.49,18.25,17.74,18.25c6.28,0,11.08-2.63,14.35-7.11l-7.81-5.38c-1.54,2.11-3.91,3.39-6.6,3.39-3.52,0-6.34-1.99-7.62-5.25h24.91c1.47-11.27-5.32-22.16-17.23-22.16M273.3,26.79h-10.25v48.03h10.25V26.79ZM256.73,39.6h-10.25v35.22h10.25v-35.22ZM251.6,36.14c3.46,0,6.15-2.69,6.15-6.15s-2.69-6.15-6.15-6.15-6.15,2.69-6.15,6.15,2.69,6.15,6.15,6.15M223.75,66.37c-4.61,0-8.13-3.91-8.13-9.16s3.52-9.16,8.13-9.16c4.87,0,8.2,3.91,8.2,9.16s-3.33,9.16-8.2,9.16M226,39.09c-4.48,0-8.01,1.54-10.44,4.48v-16.78h-10.25v48.03h10.25v-3.97c2.43,2.95,5.96,4.48,10.44,4.48,9.41,0,16.2-7.81,16.2-18.12s-6.79-18.12-16.2-18.12M182.97,66.43c-4.61,0-8.13-3.91-8.13-9.22s3.52-9.22,8.13-9.22,8.13,3.91,8.13,9.22-3.52,9.22-8.13,9.22M182.97,75.66c10.5,0,18.06-7.62,18.06-18.44s-7.56-18.44-18.06-18.44-18.06,7.62-18.06,18.44,7.56,18.44,18.06,18.44M148.91,38.96c-5.06,0-8.84,1.99-11.08,5.44-1.79-3.46-5-5.44-9.67-5.44-3.97,0-7.11,1.41-9.29,3.97v-3.33h-10.25v35.22h10.25v-21.52c0-3.46,2.24-5.83,5.57-5.83,3.14,0,5.32,2.37,5.32,5.83v21.52h10.25v-21.52c0-3.46,2.24-5.83,5.57-5.83,3.14,0,5.32,2.37,5.32,5.83v21.52h10.25v-22.86c0-8.33-4.93-13-12.23-13"/><path class="cls-2" d="M52.82,21.3c-15,0-27.2,12.2-27.2,27.2s12.2,27.2,27.2,27.2,27.2-12.2,27.2-27.2-12.2-27.2-27.2-27.2M52.82,89.41c-22.56,0-40.91-18.35-40.91-40.91S30.26,7.58,52.82,7.58s40.91,18.35,40.91,40.91-18.35,40.91-40.91,40.91"/><path class="cls-2" d="M86.26,91.15c-1.72,0-3.45-.65-4.78-1.94l-20.98-20.4c-2.71-2.64-2.77-6.98-.14-9.7,2.64-2.71,6.98-2.78,9.7-.14l20.98,20.4c2.71,2.64,2.77,6.98.13,9.7-1.34,1.38-3.13,2.08-4.92,2.08"/></g></svg>