<?xml version="1.0" encoding="UTF-8"?>
<svg id="Layer_2" data-name="Layer 2" xmlns="http://www.w3.org/2000/svg" viewBox="0 0 94 125.3">
  <defs>
    <style>
      .cls-1, .cls-2 {
        fill: #fff;
      }

      .cls-2 {
        font-family: Rubik-Regular, Rubik;
        font-size: 14px;
      }
    </style>
  </defs>
  <g id="Drop_BGS" data-name="Drop BGS">
    <g>
      <text class="cls-2" transform="translate(24.47 74.61)"><tspan x="0" y="0">Switch </tspan><tspan x="-7.64" y="16.8">language</tspan></text>
      <path class="cls-1" d="M60.26,22.99c-.15-.41-.55-.68-.98-.68s-.83.27-.98.68l-5.81,15.4c-.2.54.07,1.15.61,1.35.12.05.25.07.37.07.42,0,.83-.26.98-.68l1.33-3.53h6.99l1.33,3.53c.2.54.81.82,1.35.61s.82-.81.61-1.35l-5.81-15.4ZM56.58,33.5l2.7-7.16,2.7,7.16h-5.4ZM74.29,13.41h-20.1v-7.7C54.18,2.56,51.62,0,48.47,0h-30.02c-3.15,0-5.71,2.56-5.71,5.71v23.89c0,3.15,2.56,5.71,5.71,5.71h3.34v8.14c0,.4.23.77.6.95.14.07.3.1.45.1.24,0,.47-.08.66-.23l11.16-8.96h3.9v7.71c0,3.15,2.56,5.71,5.71,5.71h13.81l11.16,8.96c.19.15.42.23.66.23.16,0,.31-.03.45-.1.37-.17.6-.54.6-.95v-8.14h3.34c3.15,0,5.71-2.56,5.71-5.71v-23.89c0-3.15-2.56-5.71-5.71-5.71h0ZM34.29,33.2c-.24,0-.47.08-.66.23l-9.74,7.82v-7c0-.58-.47-1.05-1.05-1.05h-4.39c-1.99,0-3.61-1.62-3.61-3.6V5.71c0-1.99,1.62-3.61,3.61-3.61h30.02c1.99,0,3.61,1.62,3.61,3.6v23.89c0,1.99-1.62,3.6-3.61,3.6h-14.18ZM77.9,43.01c0,1.99-1.62,3.6-3.61,3.6h-4.39c-.58,0-1.05.47-1.05,1.05v7l-9.74-7.82c-.19-.15-.42-.23-.66-.23h-14.18c-1.99,0-3.61-1.62-3.61-3.6v-7.71h7.81c3.15,0,5.71-2.56,5.71-5.71v-14.08h20.1c1.99,0,3.61,1.62,3.61,3.6v23.89ZM40.92,23.85c.28.51.1,1.15-.41,1.43-.63.35-1.33.68-2.13.7-.02,0-.05,0-.08,0-.83,0-2.22-.41-4.84-3.45-1.28,1.43-2.65,2.69-4.06,3.68-.18.13-.4.19-.61.19-.33,0-.65-.16-.86-.44-.33-.47-.22-1.13.25-1.46,1.37-.97,2.71-2.2,3.94-3.62-1.06-1.39-1.98-2.77-2.42-3.57-.28-.51-.09-1.15.42-1.43.51-.28,1.15-.09,1.43.42.32.57,1.03,1.68,1.94,2.89,1.17-1.56,2.2-3.26,3.02-5.02h-9.59c-.58,0-1.05-.47-1.05-1.05s.47-1.05,1.05-1.05h5.49v-2.12c0-.58.47-1.05,1.05-1.05s1.05.47,1.05,1.05v2.12h5.49c.58,0,1.05.47,1.05,1.05s-.47,1.05-1.05,1.05h-1.19c-1.01,2.36-2.39,4.66-3.98,6.72,0,0,0,0,0,0,1.99,2.36,3.14,2.98,3.48,2.98h0c.35,0,.77-.22,1.17-.44.51-.28,1.15-.1,1.43.41h0Z"/>
    </g>
  </g>
</svg>