<?xml version="1.0" encoding="UTF-8"?><svg id="Layer_2" xmlns="http://www.w3.org/2000/svg" viewBox="0 0 70.37 65.67"><defs><style>.cls-1{fill:#33b2bc;}.cls-1,.cls-2,.cls-3,.cls-4,.cls-5{stroke-width:0px;}.cls-1,.cls-2,.cls-4{fill-rule:evenodd;}.cls-2{fill:#67cad7;}.cls-3,.cls-4{fill:#fff;}.cls-5{fill:#04365d;}</style></defs><g id="Layer_1-2"><g id="Icons_copy"><path id="Path" class="cls-2" d="M60.98,38.7c0,10.44-6.29,19.85-15.94,23.83-9.65,3.99-20.75,1.77-28.12-5.62-7.37-7.39-9.56-18.49-5.55-28.13.7.2,1.4.34,2.12.43,2.65.33,5.33-.1,7.75-1.22l6.81,3.1c.22.09.47.05.64-.11.17-.16.23-.41.15-.63l-2.39-6.58c2.12-2.78,3.13-6.26,2.83-9.74-.01-.14-.02-.28-.05-.42,3.92-.94,8-.94,11.91,0-.02.14-.04.28-.05.42-.3,3.49.7,6.96,2.83,9.74l-2.39,6.58c-.08.22-.02.47.15.63s.42.2.64.11l6.81-3.1c2.42,1.12,5.1,1.55,7.75,1.22.72-.09,1.43-.23,2.12-.43,1.31,3.14,1.99,6.51,1.98,9.92h0Z"/><path id="Path-2" class="cls-1" d="M28.84,30.35c.08.22.02.47-.15.63s-.42.2-.64.11l-6.81-3.1c-2.42,1.12-5.1,1.55-7.75,1.22-.72-.09-1.43-.23-2.12-.43C4.59,26.83.3,20.17,1.34,13.19,2.37,6.21,8.41,1.08,15.46,1.19c7.05.11,12.94,5.42,13.76,12.42.02.14.04.28.05.42.3,3.49-.7,6.96-2.83,9.74l2.39,6.58Z"/><path id="Path-3" class="cls-1" d="M69.08,17.04c-.73,5.57-4.69,10.17-10.08,11.74-.7.2-1.4.34-2.12.43-2.65.33-5.33-.1-7.75-1.22l-6.81,3.1c-.22.09-.47.05-.64-.11s-.23-.41-.15-.63l2.39-6.58c-2.12-2.78-3.13-6.26-2.83-9.74.01-.14.02-.28.05-.42.95-7.72,7.97-13.2,15.69-12.25,7.72.95,13.2,7.97,12.25,15.69h0Z"/></g><g id="Icons"><path id="Shape" class="cls-5" d="M9.86,29.5c-2.88,7.81-1.95,16.52,2.51,23.55.02.04.04.08.07.12,4.94,7.78,13.5,12.49,22.71,12.5,9.21,0,17.79-4.69,22.74-12.45.06-.07.1-.14.14-.22,4.42-7.02,5.33-15.7,2.46-23.49,6.86-2.58,10.91-9.68,9.64-16.89C68.88,5.4,62.66.1,55.33,0c-7.33-.1-13.69,5.03-15.14,12.21-1.64-.31-3.31-.47-4.99-.47h-.02s-.02,0-.02,0c-1.67,0-3.34.16-4.99.47C28.72,5.02,22.36-.1,15.04,0,7.71.1,1.5,5.39.23,12.61c-1.27,7.21,2.78,14.31,9.63,16.89h0ZM13.35,30.38c2.31.27,4.65.02,6.85-.74-.54,2.6-.84,5.24-.9,7.89h-8.68c.11-2.51.62-5,1.49-7.36.41.09.83.15,1.25.2h0ZM27.56,32.15c.64.29,1.4.17,1.92-.31.52-.48.7-1.23.46-1.89l-.71-1.95c1.6.07,3.2.11,4.78.13v9.4h-12.36c.06-2.57.37-5.13.9-7.65l5.01,2.28ZM27.76,23.96c1.91-2.76,2.86-6.06,2.7-9.41,1.17-.23,2.36-.38,3.55-.43v11.67c-1.88-.02-3.76-.07-5.64-.17l-.61-1.66ZM42.6,23.96l-.6,1.66c-1.89.1-3.77.15-5.64.17v-11.67c1.19.05,2.38.2,3.55.43-.16,3.35.79,6.66,2.7,9.41h0ZM59.75,39.87c-.18,3.98-1.34,7.86-3.37,11.3-2.09-.43-4.35-.8-6.77-1.1.9-3.33,1.4-6.75,1.47-10.2h8.67ZM47.27,49.82c-3.46-.34-7.14-.52-10.91-.56v-9.39h12.36c-.07,3.36-.56,6.71-1.45,9.95h0ZM10.62,39.87h8.67c.08,3.45.57,6.87,1.47,10.2-2.42.29-4.68.66-6.77,1.1-2.03-3.43-3.19-7.31-3.37-11.3ZM21.65,39.87h12.36v9.39c-3.77.03-7.46.22-10.91.56-.89-3.24-1.37-6.59-1.45-9.95ZM34.01,51.61v11.61c-4.27-.67-7.97-4.92-10.19-11.11,3.24-.3,6.67-.47,10.19-.5h0ZM36.36,63.22v-11.61c3.52.03,6.96.2,10.19.5-2.22,6.18-5.92,10.44-10.19,11.11h0ZM47.81,29.88c.54,2.51.84,5.07.9,7.64h-12.36v-9.4c1.58-.01,3.17-.06,4.78-.13l-.71,1.95c-.24.67-.06,1.41.46,1.89.52.48,1.28.6,1.92.31l5.01-2.27ZM15.39,53.28c1.89-.36,3.93-.67,6.08-.92,1.15,3.58,3.08,6.85,5.66,9.59-4.7-1.64-8.79-4.66-11.74-8.66ZM43.24,61.94c2.58-2.74,4.51-6.01,5.66-9.59,2.15.25,4.19.56,6.08.92-2.95,4.01-7.05,7.02-11.75,8.66ZM59.75,37.53h-8.69c-.06-2.65-.36-5.29-.9-7.89,2.2.76,4.54,1.01,6.85.74.42-.05.83-.12,1.25-.21.88,2.36,1.38,4.84,1.49,7.36ZM53.43,2.46c.56-.07,1.12-.11,1.68-.11,6.82-.02,12.47,5.28,12.9,12.09.43,6.81-4.51,12.77-11.28,13.61-2.43.3-4.89-.09-7.11-1.12-.31-.14-.67-.14-.98,0l-5.54,2.52.83-2.27s.01-.04.02-.05l1.07-2.94c.14-.38.07-.79-.17-1.11-2.79-3.66-3.42-8.53-1.65-12.78,1.77-4.25,5.67-7.23,10.23-7.83h0ZM6.14,6.12c4.8-4.82,12.51-5.08,17.63-.61,5.12,4.48,5.88,12.15,1.75,17.55-.24.32-.31.74-.17,1.11l1.07,2.94s.01.04.02.05l.82,2.27-5.08-2.31h-.01l-.45-.2c-.15-.07-.32-.1-.49-.1-.17,0-.34.04-.49.11-2.22,1.03-4.68,1.42-7.11,1.12-4.89-.61-9.01-3.96-10.6-8.63-1.59-4.67-.39-9.83,3.11-13.31h0Z"/><path id="Shape-2" class="cls-3" d="M7.69,22.17c.28.14.6.16.9.06s.54-.31.68-.59l2.01-4.04h7.93l2.02,4.04c.19.37.56.62.98.65.42.03.82-.17,1.05-.52.23-.35.26-.8.07-1.17l-7.03-14.07c-.22-.37-.62-.6-1.05-.6s-.83.23-1.05.6l-7.03,14.07c-.14.28-.16.6-.07.9s.31.54.59.68ZM15.25,9.66l2.79,5.59h-5.59l2.79-5.59Z"/><path id="Path-4" class="cls-4" d="M48.08,11.73h9.57c-.88,1.43-1.93,2.75-3.11,3.95-.27-.33-.53-.68-.76-1.04-.34-.55-1.05-.72-1.6-.39s-.73,1.04-.41,1.6c.32.5.67.98,1.05,1.43-1.25,1.07-2.61,2-4.07,2.77-.49.24-.75.78-.63,1.32s.59.91,1.14.91c.17,0,.35-.04.5-.12,1.68-.87,3.25-1.93,4.68-3.17,1.44,1.35,3.11,2.43,4.92,3.2.14.06.29.09.45.09.56,0,1.04-.39,1.15-.94.11-.55-.18-1.1-.7-1.31-1.51-.64-2.89-1.53-4.09-2.64,1.66-1.67,3.07-3.58,4.18-5.66h1.81c.65,0,1.17-.52,1.17-1.17s-.52-1.17-1.17-1.17h-5.86v-2.34c0-.65-.52-1.17-1.17-1.17s-1.17.52-1.17,1.17v2.34h-5.86c-.65,0-1.17.52-1.17,1.17s.52,1.17,1.17,1.17h0Z"/></g></g></svg>