<?xml version="1.0" encoding="UTF-8"?><svg id="Layer_2" xmlns="http://www.w3.org/2000/svg" xmlns:xlink="http://www.w3.org/1999/xlink" viewBox="0 0 168.37 154.33"><defs><style>.cls-1{fill:url(#linear-gradient);}.cls-1,.cls-2,.cls-3{stroke-width:0px;}.cls-2{fill:none;}.cls-4{clip-path:url(#clippath-1);}.cls-3{fill:#fff;}.cls-5{opacity:.9;}.cls-6{clip-path:url(#clippath);}</style><clipPath id="clippath"><rect class="cls-2" x="10.34" y="7.45" width="143.34" height="126.97"/></clipPath><clipPath id="clippath-1"><path class="cls-2" d="M16.61,107.08c7.68,18.51,44.24,47.25,103.27,6.95,48.5-33.12,37.11-77.94,13.59-96.31C110.8,0,79.09,7.43,50.44,23.23,18.13,41.04,0,67.06,16.61,107.08"/></clipPath><linearGradient id="linear-gradient" x1="-2089.59" y1="4214.1" x2="-2088.59" y2="4214.1" gradientTransform="translate(299546.67 604154.77) scale(143.35 -143.35)" gradientUnits="userSpaceOnUse"><stop offset="0" stop-color="#1e0bd7"/><stop offset=".87" stop-color="#0075be"/><stop offset=".99" stop-color="#005b97"/><stop offset="1" stop-color="#005b97"/></linearGradient></defs><g id="Layer_1-2"><g class="cls-5"><g class="cls-6"><g class="cls-4"><rect class="cls-1" width="168.37" height="154.33"/></g></g></g><path class="cls-3" d="M82.02,27.35c-23.42,0-42.39,18.98-42.4,42.39,0,8.22,2.36,15.89,6.41,22.38l-4.19,19.55,17.09-6.38c6.64,4.33,14.57,6.85,23.08,6.85,23.42,0,42.39-18.98,42.4-42.4,0-23.42-18.98-42.39-42.4-42.39M109.69,97.42c-7.09,7.08-16.86,11.46-27.67,11.46-8.16,0-15.72-2.48-21.98-6.75l-.7-.48-13.06,4.88,3.21-15.01-.37-.57c-3.95-6.12-6.25-13.38-6.25-21.21,0-10.81,4.38-20.59,11.46-27.67,7.09-7.08,16.86-11.46,27.67-11.46,10.81,0,20.59,4.38,27.67,11.46,7.08,7.09,11.46,16.86,11.46,27.67,0,10.81-4.38,20.59-11.46,27.67M108.92,76.43c-1.4-1.83-3.35-3.14-5.12-4.09-.89-.47-1.73-.85-2.44-1.13-.72-.28-1.29-.47-1.72-.58h0c-.62-.21-1.25-.34-1.86-.34-.88,0-1.7.24-2.4.61-1.05.56-1.82,1.36-2.51,2.17-.68.81-1.28,1.66-1.85,2.38-.4.51-.8.81-1.22,1.02-.42.2-.89.3-1.45.3-1.03,0-2.4-.39-3.93-1.17-1.53-.78-3.22-1.93-4.95-3.3h0c-2-1.58-3.69-3.16-4.84-4.64-1.15-1.48-1.69-2.81-1.68-3.82,0-.69.2-1.31.77-2.06.68-.87,1.52-1.79,2.24-2.83.71-1.04,1.35-2.28,1.36-3.78,0-.96-.31-1.96-.89-2.88-.25-.49-.67-1.16-1.28-2-.92-1.24-2.22-2.77-3.83-4.05-1.61-1.27-3.57-2.34-5.85-2.36-1.56,0-3.21.57-4.63,1.8h0c-1.85,1.58-3.25,3.69-4.21,5.94-.96,2.26-1.49,4.67-1.52,6.95v.05s0,.05,0,.05c.21,4.15,2.2,8.42,5.13,12.52,2.94,4.1,6.85,8.04,11.12,11.38,3.75,2.98,7.89,5.6,12.03,7.48,4.14,1.88,8.28,3.05,12.08,3.06.99,0,1.95-.08,2.89-.25h.05s.05-.02.05-.02c2.21-.56,4.44-1.64,6.41-3.1,1.97-1.46,3.69-3.31,4.8-5.47h0c.58-1.13.86-2.28.86-3.39,0-1.72-.68-3.24-1.6-4.46M102.91,87.13c-1.62,1.2-3.49,2.1-5.22,2.54-.7.13-1.45.19-2.24.19-3.12,0-6.88-1.01-10.73-2.77-3.85-1.75-7.8-4.24-11.36-7.07h0s0,0,0,0c-4.05-3.17-7.78-6.93-10.48-10.72-2.71-3.77-4.36-7.57-4.52-10.73.02-1.77.46-3.8,1.25-5.66.8-1.88,1.96-3.57,3.33-4.74.94-.78,1.71-1.01,2.52-1.02.78,0,1.64.27,2.52.76,1.32.74,2.63,1.99,3.64,3.18.5.59.93,1.17,1.26,1.65.33.48.56.87.64,1.03l.05.09.06.09c.35.53.43.88.43,1.22,0,.49-.24,1.14-.79,1.94-.54.8-1.33,1.68-2.1,2.65h0c-.97,1.23-1.48,2.66-1.47,4.08.01,2.1.98,4.02,2.37,5.81,1.4,1.8,3.27,3.53,5.39,5.2,1.84,1.46,3.68,2.72,5.49,3.65,1.81.92,3.6,1.52,5.41,1.53.97,0,1.95-.19,2.85-.62.9-.43,1.71-1.09,2.38-1.94.86-1.09,1.61-2.19,2.33-2.9.36-.36.69-.62.99-.78.3-.16.56-.23.87-.23.24,0,.53.04.91.19l.09.04.1.02c.26.06,1.03.31,1.93.71,1.36.59,3.1,1.54,4.39,2.69.65.57,1.18,1.19,1.53,1.81.35.62.53,1.23.53,1.87,0,.56-.13,1.17-.5,1.91-.82,1.6-2.2,3.12-3.84,4.33"/></g></svg>