<?xml version="1.0" encoding="UTF-8"?><svg id="Layer_2" xmlns="http://www.w3.org/2000/svg" xmlns:xlink="http://www.w3.org/1999/xlink" viewBox="0 0 170.56 151.08"><defs><style>.cls-1{fill:#fff;}.cls-1,.cls-2{stroke-width:0px;}.cls-2{fill:url(#New_Gradient_Swatch);}</style><linearGradient id="New_Gradient_Swatch" x1="85.28" y1="0" x2="85.28" y2="151.08" gradientUnits="userSpaceOnUse"><stop offset="0" stop-color="#93d0e9"/><stop offset=".87" stop-color="#0075be"/><stop offset=".99" stop-color="#005b97"/></linearGradient></defs><g id="Layer_1-2"><path class="cls-2" d="M7.46,118.54c9.14,22.03,52.64,56.22,122.87,8.27,57.7-39.4,44.15-92.74,16.17-114.59C119.53-8.86,81.81-.03,47.71,18.77,9.27,39.96-12.3,70.93,7.46,118.54Z"/><path class="cls-1" d="M85.29,23.68c-27.86,0-50.44,22.58-50.44,50.44,0,9.78,2.8,18.9,7.63,26.63l-4.98,23.26,20.33-7.59c7.9,5.15,17.33,8.15,27.46,8.15,27.86,0,50.44-22.58,50.44-50.44,0-27.86-22.58-50.44-50.44-50.44ZM118.21,107.05c-8.43,8.43-20.06,13.63-32.93,13.64-9.71,0-18.7-2.95-26.15-8.03l-.83-.57-15.54,5.8,3.83-17.86-.44-.67c-4.7-7.28-7.43-15.92-7.43-25.24,0-12.87,5.21-24.5,13.64-32.93,8.43-8.43,20.06-13.63,32.93-13.64,12.87,0,24.5,5.21,32.93,13.64,8.43,8.43,13.63,20.06,13.64,32.93,0,12.87-5.21,24.5-13.64,32.93ZM117.29,82.08c-1.66-2.18-3.99-3.74-6.09-4.87-1.05-.56-2.05-1.01-2.9-1.35-.86-.34-1.53-.56-2.05-.69h0c-.74-.25-1.49-.4-2.21-.4-1.05,0-2.03.28-2.85.72-1.24.67-2.17,1.62-2.98,2.58-.81.97-1.52,1.97-2.2,2.84-.48.6-.95.97-1.46,1.21-.5.24-1.06.36-1.72.36-1.23,0-2.85-.46-4.67-1.4-1.82-.93-3.83-2.3-5.89-3.93h0c-2.38-1.87-4.4-3.76-5.75-5.52-1.37-1.76-2.02-3.34-2-4.54,0-.83.24-1.57.92-2.45.81-1.03,1.81-2.12,2.66-3.37.84-1.24,1.61-2.71,1.62-4.5,0-1.14-.37-2.33-1.06-3.42h0c-.3-.58-.8-1.38-1.53-2.37-1.09-1.48-2.64-3.3-4.56-4.82-1.92-1.51-4.25-2.79-6.96-2.8-1.86-.01-3.81.68-5.51,2.14h0c-2.2,1.88-3.86,4.39-5.01,7.07-1.14,2.69-1.78,5.56-1.81,8.27v.06s0,.06,0,.06c.25,4.94,2.62,10.02,6.1,14.9,3.49,4.88,8.15,9.56,13.23,13.54,4.46,3.55,9.39,6.66,14.31,8.9,4.93,2.24,9.85,3.63,14.38,3.64,1.17,0,2.32-.1,3.44-.3h.06s.06-.03.06-.03c2.63-.67,5.28-1.95,7.63-3.69,2.34-1.74,4.39-3.93,5.72-6.51h0c.69-1.35,1.02-2.72,1.02-4.03,0-2.05-.8-3.85-1.91-5.3ZM110.15,94.8c-1.93,1.43-4.16,2.5-6.21,3.02-.84.15-1.72.23-2.66.23-3.71,0-8.19-1.2-12.77-3.29-4.58-2.09-9.28-5.04-13.51-8.41h0s0,0,0,0c-4.82-3.78-9.25-8.24-12.47-12.75-3.22-4.48-5.19-9-5.38-12.77.03-2.11.55-4.52,1.49-6.73.95-2.23,2.33-4.25,3.96-5.63,1.11-.93,2.04-1.2,3-1.22.93,0,1.95.32,3,.91,1.57.88,3.13,2.37,4.33,3.78.6.7,1.11,1.39,1.5,1.96.39.56.67,1.04.76,1.23l.06.11.07.1c.42.63.51,1.05.52,1.46,0,.58-.29,1.36-.94,2.31-.64.95-1.58,2-2.5,3.15h0c-1.16,1.46-1.76,3.16-1.75,4.86.01,2.5,1.17,4.78,2.81,6.92,1.66,2.14,3.89,4.19,6.42,6.19,2.19,1.73,4.38,3.24,6.53,4.34,2.16,1.09,4.29,1.81,6.44,1.82,1.16,0,2.32-.23,3.4-.74,1.07-.51,2.04-1.3,2.83-2.31,1.02-1.3,1.92-2.6,2.77-3.46.42-.43.83-.74,1.18-.93.36-.19.66-.27,1.04-.27.29,0,.63.05,1.08.22l.11.04.12.03c.31.07,1.23.37,2.3.84,1.62.71,3.69,1.83,5.22,3.21.77.68,1.4,1.42,1.82,2.16.42.74.63,1.46.63,2.23,0,.66-.16,1.39-.6,2.27-.97,1.9-2.62,3.71-4.57,5.16Z"/></g></svg>